<svg width="125" height="125" viewBox="0 0 125 125" fill="none" xmlns="http://www.w3.org/2000/svg">
<path d="M30.6666 28.833H39" stroke="white" stroke-width="6.25" stroke-linecap="round" stroke-linejoin="round"/>
<path d="M34.8334 24.667V33.0003" stroke="white" stroke-width="6.25" stroke-linecap="round" stroke-linejoin="round"/>
<path d="M61.9167 24.667L59.8334 33.0003" stroke="white" stroke-width="6.25" stroke-linecap="round" stroke-linejoin="round"/>
<path d="M89 28.833H97.3333" stroke="white" stroke-width="6.25" stroke-linecap="round" stroke-linejoin="round"/>
<path d="M93.1666 24.667V33.0003" stroke="white" stroke-width="6.25" stroke-linecap="round" stroke-linejoin="round"/>
<path d="M76.5 45.5L72.3334 49.6667" stroke="white" stroke-width="6.25" stroke-linecap="round" stroke-linejoin="round"/>
<path d="M89 62.1663L97.3333 60.083" stroke="white" stroke-width="6.25" stroke-linecap="round" stroke-linejoin="round"/>
<path d="M89 87.167H97.3333" stroke="white" stroke-width="6.25" stroke-linecap="round" stroke-linejoin="round"/>
<path d="M93.1666 83V91.3333" stroke="white" stroke-width="6.25" stroke-linecap="round" stroke-linejoin="round"/>
<path d="M72.3333 76.8253L45.175 49.667L26.8833 89.5837C26.5218 90.3587 26.4075 91.2262 26.5559 92.0684C26.7044 92.9106 27.1084 93.6867 27.7131 94.2914C28.3178 94.8961 29.0939 95.3001 29.9361 95.4486C30.7783 95.597 31.6458 95.4827 32.4208 95.1212L72.3333 76.8253Z" fill="white" stroke="white" stroke-width="6.25" stroke-linecap="round" stroke-linejoin="round"/>
</svg>
